<svg display="none" xmlns="http://www.w3.org/2000/svg">
    <symbol id="phone-svg" viewBox="0 0 28 28">
        <g id="ic_fluent_phone_28_regular">
            <path d="M7.92072596,2.64472005 L9.58060919,2.14438844 C11.1435675,1.67327249 12.8134781,2.43464008 13.4828053,3.92352899 L14.5160823,6.22200834 C15.0865915,7.491081 14.7859439,8.98254111 13.7683291,9.93148073 L11.9633958,11.6146057 C11.9410906,11.6354021 11.9227774,11.6601187 11.9093651,11.6875342 C11.720585,12.0734103 12.0066606,13.1043886 12.9061418,14.6623357 C13.9199541,16.4183102 14.7035571,17.1131712 15.0654726,17.005305 L17.4348517,16.2809111 C18.765101,15.8742119 20.2066891,16.3591908 21.0206203,17.4872349 L22.4880851,19.5210248 C23.440761,20.8413581 23.2694403,22.6628821 22.0872853,23.782427 L20.8252038,24.9776653 C19.9337363,25.8219337 18.6854328,26.1763171 17.4833291,25.9264007 C13.966189,25.1951903 10.8150019,22.3628582 8.00336279,17.4929565 C5.18895293,12.6182556 4.31270988,8.46966127 5.44310245,5.05625686 C5.82703045,3.89692852 6.75144427,2.9971717 7.92072596,2.64472005 Z M8.35362603,4.08089467 C7.65205693,4.29236569 7.09740832,4.83222008 6.86705161,5.52781682 C5.89305385,8.46896164 6.6820141,12.2043134 9.30240089,16.7429565 C11.9202871,21.2772684 14.7578382,23.8276999 17.7886493,24.4578029 C18.5099109,24.6077526 19.2588899,24.3951235 19.7937719,23.888561 L21.0558584,22.6933179 C21.6924034,22.0904861 21.784653,21.1096654 21.2716737,20.3987168 L19.8042088,18.3649269 C19.3659382,17.7575185 18.5896985,17.496376 17.8734103,17.7153679 L15.4990066,18.4412788 C14.1848357,18.833027 12.9496858,17.7377562 11.6071037,15.4123357 C10.4705242,13.4437223 10.075962,12.0217729 10.5619671,11.0283539 C10.6558865,10.8363778 10.7841758,10.6632305 10.9404443,10.5175321 L12.7453325,8.83444937 C13.2932789,8.32348189 13.455166,7.52038798 13.1479688,6.83704116 L12.1146918,4.53856182 C11.7542848,3.7368524 10.8551022,3.32688524 10.0135093,3.58056306 L8.35362603,4.08089467 Z"></path>
        </g>
    </symbol>

    <symbol id="logo-svg"  viewBox="0 0 319 35">
        <path d="M35.1328 32.9688C35.1328 33.6562 34.7266 34 33.9141 34H28.5469C27.9375 34 27.2812 33.7891 26.5781 33.3672C25.875 32.9297 25.3281 32.4062 24.9375 31.7969L20.8125 25.2578C19.8281 23.6641 18.8359 22.4688 17.8359 21.6719C16.8359 20.8594 15.6328 20.4531 14.2266 20.4531H9.1875V31.8438C9.1875 32.4531 8.96875 32.9688 8.53125 33.3906C8.10938 33.7969 7.59375 34 6.98438 34H2.57812C1.96875 34 1.44531 33.7812 1.00781 33.3438C0.570312 32.8906 0.351562 32.3594 0.351562 31.75V2.61719C0.351562 2.00781 0.570312 1.47656 1.00781 1.02344C1.44531 0.570313 1.96875 0.34375 2.57812 0.34375H6.98438C7.59375 0.34375 8.10938 0.570313 8.53125 1.02344C8.96875 1.47656 9.1875 2.00781 9.1875 2.61719V13.8438H14.2266C15.6016 13.8438 16.8047 13.4688 17.8359 12.7188C18.8828 11.9688 19.875 10.7578 20.8125 9.08594L24.4453 2.61719C25.2734 1.11719 26.3984 0.359375 27.8203 0.34375H33.2344C33.9844 0.34375 34.3594 0.671875 34.3594 1.32812C34.3594 1.6875 34.2266 2.11719 33.9609 2.61719L28.875 11.8281C28.1406 13.1719 27.3125 14.2812 26.3906 15.1562C25.4844 16.0312 24.2969 16.6484 22.8281 17.0078C23.8594 17.2266 24.9141 17.875 25.9922 18.9531C27.0859 20.0312 28.0469 21.2031 28.875 22.4688L34.7344 31.7969C35 32.25 35.1328 32.6406 35.1328 32.9688ZM38.5078 31.8438V2.61719C38.5078 2.00781 38.7266 1.48438 39.1641 1.04688C39.6016 0.609375 40.125 0.390625 40.7344 0.390625H45.0938C45.7344 0.390625 46.2656 0.609375 46.6875 1.04688C47.125 1.48438 47.3438 2.00781 47.3438 2.61719V31.7969C47.3438 32.4062 47.1172 32.9297 46.6641 33.3672C46.2266 33.7891 45.7031 34 45.0938 34H40.7344C40.125 34 39.6016 33.7969 39.1641 33.3906C38.7266 32.9688 38.5078 32.4531 38.5078 31.8438ZM54.0703 31.8438V2.66406C54.0703 2.02344 54.2891 1.48438 54.7266 1.04688C55.1641 0.609375 55.6875 0.390625 56.2969 0.390625H60.7031C61.3125 0.390625 61.8281 0.609375 62.25 1.04688C62.6875 1.48438 62.9062 2.02344 62.9062 2.66406V27.3672H83.3203C83.9297 27.3672 84.4453 27.5859 84.8672 28.0234C85.3047 28.4609 85.5234 28.9844 85.5234 29.5938V31.7969C85.5234 32.4062 85.3047 32.9297 84.8672 33.3672C84.4453 33.7891 83.9297 34 83.3203 34H56.2969C55.6875 34 55.1641 33.7969 54.7266 33.3906C54.2891 32.9688 54.0703 32.4531 54.0703 31.8438ZM89.3672 31.8438V2.66406C89.3672 2.02344 89.5859 1.48438 90.0234 1.04688C90.4609 0.609375 90.9844 0.390625 91.5938 0.390625H96C96.6094 0.390625 97.125 0.609375 97.5469 1.04688C97.9844 1.48438 98.2031 2.02344 98.2031 2.66406V27.3672H118.617C119.227 27.3672 119.742 27.5859 120.164 28.0234C120.602 28.4609 120.82 28.9844 120.82 29.5938V31.7969C120.82 32.4062 120.602 32.9297 120.164 33.3672C119.742 33.7891 119.227 34 118.617 34H91.5938C90.9844 34 90.4609 33.7969 90.0234 33.3906C89.5859 32.9688 89.3672 32.4531 89.3672 31.8438Z" fill="black"/>
        <path d="M141.492 31.75V2.66406C141.492 2.02344 141.703 1.48438 142.125 1.04688C142.547 0.609375 143.062 0.390625 143.672 0.390625H153.211C153.82 0.390625 154.398 0.609375 154.945 1.04688C155.492 1.48438 155.859 2.00781 156.047 2.61719L162.961 22.6328L169.875 2.61719C170.062 2.00781 170.43 1.48438 170.977 1.04688C171.523 0.609375 172.102 0.390625 172.711 0.390625H182.25C182.859 0.390625 183.367 0.609375 183.773 1.04688C184.195 1.48438 184.406 2.02344 184.406 2.66406V31.75C184.406 32.3906 184.188 32.9297 183.75 33.3672C183.328 33.7891 182.812 34 182.203 34H177.984C177.375 34 176.852 33.7891 176.414 33.3672C175.992 32.9297 175.781 32.3906 175.781 31.75V8.85156L167.508 31.8906C167.289 32.4688 166.906 32.9688 166.359 33.3906C165.812 33.7969 165.234 34 164.625 34H161.273C160.664 34 160.086 33.7969 159.539 33.3906C159.008 32.9688 158.625 32.4688 158.391 31.8906L150.141 8.85156V31.75C150.141 32.3906 149.922 32.9297 149.484 33.3672C149.062 33.7891 148.547 34 147.938 34H143.719C143.109 34 142.586 33.7891 142.148 33.3672C141.711 32.9297 141.492 32.3906 141.492 31.75ZM190.664 20.7109V2.61719C190.664 2.00781 190.875 1.48438 191.297 1.04688C191.734 0.609375 192.273 0.390625 192.914 0.390625H197.297C197.891 0.390625 198.406 0.609375 198.844 1.04688C199.281 1.48438 199.5 2.00781 199.5 2.61719V20.7578C199.5 23.0547 200 24.7656 201 25.8906C202.016 27.0156 203.578 27.5781 205.688 27.5781H209.438C211.547 27.5781 213.102 27.0156 214.102 25.8906C215.117 24.7656 215.625 23.0547 215.625 20.7578V2.61719C215.625 2.00781 215.836 1.48438 216.258 1.04688C216.695 0.609375 217.219 0.390625 217.828 0.390625H222.188C222.828 0.390625 223.367 0.609375 223.805 1.04688C224.242 1.48438 224.461 2.00781 224.461 2.61719V20.7109C224.461 24.9922 223.203 28.3125 220.688 30.6719C218.172 33.0156 214.5 34.1875 209.672 34.1875H205.453C200.609 34.1875 196.93 33.0156 194.414 30.6719C191.914 28.3125 190.664 24.9922 190.664 20.7109ZM228.773 25.3984C228.773 24.4766 229.047 23.8203 229.594 23.4297C230.141 23.0234 230.672 22.8203 231.188 22.8203H233.977C235.383 22.8203 236.453 23.5859 237.188 25.1172C237.922 26.6484 239.57 27.4141 242.133 27.4141L250.336 27.5781C253.086 27.5781 254.461 26.6797 254.461 24.8828C254.461 23.5234 252.781 22.4531 249.422 21.6719C247.922 21.3125 246.266 20.9609 244.453 20.6172C242.641 20.2578 240.836 19.8125 239.039 19.2812C237.258 18.75 235.617 18.125 234.117 17.4062C232.617 16.6875 231.398 15.7031 230.461 14.4531C229.539 13.1875 229.078 11.7031 229.078 10C229.078 6.85938 230.195 4.44531 232.43 2.75781C234.664 1.05469 238.508 0.203125 243.961 0.203125L249.914 0.34375C253.117 0.34375 256 1.17187 258.562 2.82812C261.141 4.46875 262.43 6.52344 262.43 8.99219C262.43 9.91406 262.156 10.5781 261.609 10.9844C261.062 11.3906 260.539 11.5938 260.039 11.5938H257.25C255.844 11.5938 254.773 10.8281 254.039 9.29688C253.305 7.75 251.656 6.97656 249.094 6.97656L242.039 6.83594C239.289 6.83594 237.914 7.73438 237.914 9.53125C237.914 10.5156 238.781 11.3203 240.516 11.9453C242.266 12.5703 244.375 13.125 246.844 13.6094C249.328 14.0781 251.82 14.6484 254.32 15.3203C256.82 15.9922 258.938 17.1016 260.672 18.6484C262.422 20.1797 263.297 22.0938 263.297 24.3906C263.297 27.5312 262.172 29.9531 259.922 31.6562C257.688 33.3438 253.852 34.1875 248.414 34.1875L241.312 34.0469C238.109 34.0469 235.219 33.2266 232.641 31.5859C230.062 29.9297 228.773 27.8672 228.773 25.3984ZM268.102 31.8438V2.61719C268.102 2.00781 268.32 1.48438 268.758 1.04688C269.195 0.609375 269.719 0.390625 270.328 0.390625H274.688C275.328 0.390625 275.859 0.609375 276.281 1.04688C276.719 1.48438 276.938 2.00781 276.938 2.61719V31.7969C276.938 32.4062 276.711 32.9297 276.258 33.3672C275.82 33.7891 275.297 34 274.688 34H270.328C269.719 34 269.195 33.7969 268.758 33.3906C268.32 32.9688 268.102 32.4531 268.102 31.8438ZM286.078 30.0391C283.188 27.2734 281.742 23 281.742 17.2188C281.742 11.4219 283.188 7.14062 286.078 4.375C288.984 1.59375 293.336 0.203125 299.133 0.203125H304.359C307.906 0.203125 311.039 1.125 313.758 2.96875C316.492 4.8125 317.859 7.33594 317.859 10.5391C317.859 11.4609 317.586 12.125 317.039 12.5312C316.492 12.9219 315.961 13.1172 315.445 13.1172H312.656C311.219 13.1172 310.102 12.2578 309.305 10.5391C308.148 8.07031 306.227 6.83594 303.539 6.83594H299.367C295.945 6.83594 293.625 7.57031 292.406 9.03906C291.188 10.5078 290.578 13.2266 290.578 17.1953C290.578 21.1641 291.188 23.8906 292.406 25.375C293.625 26.8438 295.945 27.5781 299.367 27.5781H304.031C306.719 27.5781 308.633 26.3438 309.773 23.875C310.57 22.1406 311.695 21.2734 313.148 21.2734H315.938C316.672 21.2734 317.25 21.5469 317.672 22.0938C318.109 22.6406 318.328 23.2344 318.328 23.875C318.328 27.0781 316.969 29.6016 314.25 31.4453C311.531 33.2734 308.398 34.1875 304.852 34.1875H299.133C293.336 34.1875 288.984 32.8047 286.078 30.0391Z" fill="#FF6600"/>
    </symbol>

    <symbol id="app-grid-svg"  viewBox="0 0 21 21">
        <path d="m3.49859901.50058486-2 .00245141c-.55180573.00067635-.9987743.4481931-.9987743.99999924v1.99673096c0 .51283584.38604019.93550716.88337888.99327227l.11784682.00672698 2-.00245141c.55180573-.00067635.9987743-.4481931.9987743-.99999925v-1.9967302c0-.51283659-.38604019-.93550791-.88337887-.99327302zm6 0-2 .00245141c-.55180573.00067635-.9987743.4481931-.9987743.99999924v1.99673096c0 .51283584.38604019.93550716.88337888.99327227l.11784682.00672698 2-.00245141c.55180569-.00067635.99877429-.4481931.99877429-.99999925v-1.9967302c0-.51283659-.3860402-.93550791-.88337886-.99327302zm-6 6-2 .00245141c-.55180573.00067635-.9987743.4481931-.9987743.99999924v1.99673096c0 .51283583.38604019.93550713.88337888.99327223l.11784682.006727 2-.0024514c.55180573-.0006763.9987743-.4481931.9987743-.99999924v-1.9967302c0-.51283659-.38604019-.93550791-.88337887-.99327302zm6 0-2 .00245141c-.55180573.00067635-.9987743.4481931-.9987743.99999924v1.99673096c0 .51283583.38604019.93550713.88337888.99327223l.11784682.006727 2-.0024514c.55180569-.0006763.99877429-.4481931.99877429-.99999924v-1.9967302c0-.51283659-.3860402-.93550791-.88337886-.99327302z" transform="translate(5 5)"/>
    </symbol>

    <symbol id="arrow-catalog-svg" viewBox="0 0 330 330">
        <path id="XMLID_93_" d="M325.606,229.393l-150.004-150C172.79,76.58,168.974,75,164.996,75c-3.979,0-7.794,1.581-10.607,4.394
	l-149.996,150c-5.858,5.858-5.858,15.355,0,21.213c5.857,5.857,15.355,5.858,21.213,0l139.39-139.393l139.397,139.393
	C307.322,253.536,311.161,255,315,255c3.839,0,7.678-1.464,10.607-4.394C331.464,244.748,331.464,235.251,325.606,229.393z"/>
    </symbol>

    <symbol id="search-svg"   viewBox="0 0 487.95 487.95">
        <path d="M481.8,453l-140-140.1c27.6-33.1,44.2-75.4,44.2-121.6C386,85.9,299.5,0.2,193.1,0.2S0,86,0,191.4s86.5,191.1,192.9,191.1
			c45.2,0,86.8-15.5,119.8-41.4l140.5,140.5c8.2,8.2,20.4,8.2,28.6,0C490,473.4,490,461.2,481.8,453z M41,191.4
			c0-82.8,68.2-150.1,151.9-150.1s151.9,67.3,151.9,150.1s-68.2,150.1-151.9,150.1S41,274.1,41,191.4z"/>
	
    </symbol>

    <symbol id="like-svg"   viewBox="0 0 51.997 51.997">
        <path d="M51.911,16.242C51.152,7.888,45.239,1.827,37.839,1.827c-4.93,0-9.444,2.653-11.984,6.905
		c-2.517-4.307-6.846-6.906-11.697-6.906c-7.399,0-13.313,6.061-14.071,14.415c-0.06,0.369-0.306,2.311,0.442,5.478
		c1.078,4.568,3.568,8.723,7.199,12.013l18.115,16.439l18.426-16.438c3.631-3.291,6.121-7.445,7.199-12.014
		C52.216,18.553,51.97,16.611,51.911,16.242z M49.521,21.261c-0.984,4.172-3.265,7.973-6.59,10.985L25.855,47.481L9.072,32.25
		c-3.331-3.018-5.611-6.818-6.596-10.99c-0.708-2.997-0.417-4.69-0.416-4.701l0.015-0.101C2.725,9.139,7.806,3.826,14.158,3.826
		c4.687,0,8.813,2.88,10.771,7.515l0.921,2.183l0.921-2.183c1.927-4.564,6.271-7.514,11.069-7.514
		c6.351,0,11.433,5.313,12.096,12.727C49.938,16.57,50.229,18.264,49.521,21.261z"/>
	    <path d="M15.999,7.904c-5.514,0-10,4.486-10,10c0,0.553,0.447,1,1,1s1-0.447,1-1c0-4.411,3.589-8,8-8c0.553,0,1-0.447,1-1
		S16.551,7.904,15.999,7.904z"/>
    </symbol>

    <symbol id="cart-svg"   viewBox="0 0 60 60">
        <path d="M11.68,13l-0.833-5h-2.99C7.411,6.28,5.859,5,4,5C1.794,5,0,6.794,0,9s1.794,4,4,4c1.859,0,3.411-1.28,3.858-3h1.294l0.5,3
	H9.614l5.171,26.016c-2.465,0.188-4.518,2.086-4.76,4.474c-0.142,1.405,0.32,2.812,1.268,3.858C12.242,48.397,13.594,49,15,49h2
	c0,3.309,2.691,6,6,6s6-2.691,6-6h11c0,3.309,2.691,6,6,6s6-2.691,6-6h4c0.553,0,1-0.447,1-1s-0.447-1-1-1h-4.35
	c-0.826-2.327-3.043-4-5.65-4s-4.824,1.673-5.65,4h-11.7c-0.826-2.327-3.043-4-5.65-4s-4.824,1.673-5.65,4H15
	c-0.842,0-1.652-0.362-2.224-0.993c-0.577-0.639-0.848-1.461-0.761-2.316c0.152-1.509,1.546-2.69,3.173-2.69h0.791
	c0.014,0,0.025,0,0.039,0h38.994C57.763,41,60,38.763,60,36.013V13H11.68z M4,11c-1.103,0-2-0.897-2-2s0.897-2,2-2s2,0.897,2,2
	S5.103,11,4,11z M46,45c2.206,0,4,1.794,4,4s-1.794,4-4,4s-4-1.794-4-4S43.794,45,46,45z M23,45c2.206,0,4,1.794,4,4s-1.794,4-4,4
	s-4-1.794-4-4S20.794,45,23,45z M58,36.013C58,37.66,56.66,39,55.013,39H16.821l-4.77-24H58V36.013z"/>
    </symbol>
</svg>