<svg display="none" xmlns="http://www.w3.org/2000/svg">
    <symbol id="phone-svg" viewBox="0 0 28 28">
        <g id="ic_fluent_phone_28_regular">
            <path d="M7.92072596,2.64472005 L9.58060919,2.14438844 C11.1435675,1.67327249 12.8134781,2.43464008 13.4828053,3.92352899 L14.5160823,6.22200834 C15.0865915,7.491081 14.7859439,8.98254111 13.7683291,9.93148073 L11.9633958,11.6146057 C11.9410906,11.6354021 11.9227774,11.6601187 11.9093651,11.6875342 C11.720585,12.0734103 12.0066606,13.1043886 12.9061418,14.6623357 C13.9199541,16.4183102 14.7035571,17.1131712 15.0654726,17.005305 L17.4348517,16.2809111 C18.765101,15.8742119 20.2066891,16.3591908 21.0206203,17.4872349 L22.4880851,19.5210248 C23.440761,20.8413581 23.2694403,22.6628821 22.0872853,23.782427 L20.8252038,24.9776653 C19.9337363,25.8219337 18.6854328,26.1763171 17.4833291,25.9264007 C13.966189,25.1951903 10.8150019,22.3628582 8.00336279,17.4929565 C5.18895293,12.6182556 4.31270988,8.46966127 5.44310245,5.05625686 C5.82703045,3.89692852 6.75144427,2.9971717 7.92072596,2.64472005 Z M8.35362603,4.08089467 C7.65205693,4.29236569 7.09740832,4.83222008 6.86705161,5.52781682 C5.89305385,8.46896164 6.6820141,12.2043134 9.30240089,16.7429565 C11.9202871,21.2772684 14.7578382,23.8276999 17.7886493,24.4578029 C18.5099109,24.6077526 19.2588899,24.3951235 19.7937719,23.888561 L21.0558584,22.6933179 C21.6924034,22.0904861 21.784653,21.1096654 21.2716737,20.3987168 L19.8042088,18.3649269 C19.3659382,17.7575185 18.5896985,17.496376 17.8734103,17.7153679 L15.4990066,18.4412788 C14.1848357,18.833027 12.9496858,17.7377562 11.6071037,15.4123357 C10.4705242,13.4437223 10.075962,12.0217729 10.5619671,11.0283539 C10.6558865,10.8363778 10.7841758,10.6632305 10.9404443,10.5175321 L12.7453325,8.83444937 C13.2932789,8.32348189 13.455166,7.52038798 13.1479688,6.83704116 L12.1146918,4.53856182 C11.7542848,3.7368524 10.8551022,3.32688524 10.0135093,3.58056306 L8.35362603,4.08089467 Z"></path>
        </g>
    </symbol>
    <symbol id="logo-svg" viewBox="0 0 300 300">
        <path d="M215.3 132.7c-1.2.2-3.6 1.7-5.3 3.3-6.2 5.7-2.4 14.1 7.1 15.6 2.2.4 5 1.5 6.2 2.4 1.8 1.5 1.9 2 .8 3.4-1.7 2-8.9 2.1-13.6.2l-3.5-1.5v3.4c0 3.1.2 3.4 5 4.5 7 1.7 12.7.5 16.7-3.5 6.3-6.3 3.4-12.2-7.8-15.5-5.3-1.6-6.9-2.5-6.9-3.9 0-1.1.7-2.2 1.6-2.5 2.8-1.1 9.8-.6 12.7.8 2.7 1.5 2.7 1.5 2.7-1.8 0-3.1-.3-3.4-4.4-4.5-4.5-1.1-7.2-1.2-11.3-.4zm54.3.3c-6.3 2-9.6 7.3-9.6 15.7 0 10.3 5.2 15.8 14.9 15.7 7.3 0 10.1-1.6 10.1-5.5 0-3 0-3-3-1.4-3.9 2-9.3 1.9-12-.3-3.9-3.2-4-13.2 0-17.2 2.4-2.4 8.7-2.7 11.6-.5 2.8 2.1 3.4 1.8 3.4-1.5 0-1.9-.7-3.3-2-4-2.8-1.5-10.1-2.1-13.4-1zM13 148.5V164h8v-5.4c0-3 .4-5.8 1-6.1.5-.3 2.9 2.1 5.2 5.4 4.2 6 4.4 6 9.2 6.1 3.7 0 4.6-.3 3.9-1.3-4.4-5.8-10.1-13.4-10.6-14.4-.4-.7 1.6-3.9 4.8-7.7 3-3.5 5.5-6.7 5.5-7s-1.9-.6-4.2-.6c-4.1 0-4.5.3-9.3 6.7l-5 6.6-.3-6.6-.3-6.7H13v15.5zM44 136c0 2.5.4 3 2.5 3 2.5 0 2.5 0 2.5 9.5s0 9.5-2.5 9.5c-2.1 0-2.5.5-2.5 3v3h17v-3c0-2.5-.4-3-2.5-3-2.5 0-2.5 0-2.5-9.5s0-9.5 2.5-9.5c2.1 0 2.5-.5 2.5-3v-3H44v3zm24 12.5V164h22v-6H76v-25h-8v15.5zm26 0V164h22v-6h-14v-25h-8v15.5zm41 0V164h6.9l.3-10.8.3-10.7 2.9 7.2c2.4 6 3.3 7.3 5.2 7.3 1.8 0 2.8-1.3 5.3-7.3l3-7.2.1 10.7V164h7v-31h-7.8l-3.3 8c-1.9 4.4-3.7 8-4 8s-2-3.6-3.9-8l-3.4-8H135v15.5zm39-3.8c0 9.9.3 12.3 2 15 3.5 5.8 15 6.8 20.8 1.8 2.6-2.3 2.7-2.6 3-15.4l.4-13.1H193v11.8c0 7.8-.4 12.2-1.2 13-2 2-8.6 1.5-9.8-.7-.5-1.1-1-6.9-1-13V133h-7v11.7zm63-8.7c0 2.5.4 3 2.5 3 2.5 0 2.5 0 2.5 9.5s0 9.5-2.5 9.5c-2.1 0-2.5.5-2.5 3v3h17v-3c0-2.5-.4-3-2.5-3-2.5 0-2.5 0-2.5-9.5s0-9.5 2.5-9.5c2.1 0 2.5-.5 2.5-3v-3h-17v3z"/>
    </symbol>
</svg>